<?xml version="1.0" encoding="UTF-8"?>
<!DOCTYPE svg PUBLIC "-//W3C//DTD SVG 1.1//EN" "http://www.w3.org/Graphics/SVG/1.1/DTD/svg11.dtd">
<svg xmlns="http://www.w3.org/2000/svg" xml:space="preserve" width="0.747398in" height="0.804689in" style="shape-rendering:geometricPrecision; text-rendering:geometricPrecision; image-rendering:optimizeQuality; fill-rule:evenodd; clip-rule:evenodd"
viewBox="0 0 0.00997351 0.010738"
 xmlns:xlink="http://www.w3.org/1999/xlink">
 <g id="base">
  <polygon style="fill:#D9DADA" points="-0,0.00333608 -0,0.00184178 0.000973032,0.000729735 0.00194606,0 0.0077842,0 0.00896575,0.000903526 0.00973027,0.001807 0.00997351,0.00410059 0.00993879,0.00837498 0.00979977,0.00997351 0.00955648,0.0104253 0.00625518,0.010599 0.00198079,0.010738 0.000799241,0.0107032 0.000416984,0.0104948 0.000208518,0.010043 -0,0.00764519 "/>
  <polygon style="fill:#898989" points="0.000208518,0.010043 0.000416984,0.0104948 0.000894437,0.00997441 0.00201515,0.00807179 0.00211938,0.00777643 0.00204121,0.00757658 0.00185875,0.00759397 0.00123367,0.00860173 "/>
  <polygon style="fill:#898989" points="0.00979977,0.00997351 0.00955648,0.0104253 0.00932085,0.0098573 0.00881692,0.00853679 0.00853895,0.00763327 0.00859106,0.00745947 0.00883431,0.00751159 0.00930346,0.00869314 "/>
  <polygon style="fill:#FEFEFE" points="0.0020514,0.00348071 0.00194606,0 0.0077842,0 0.00814802,0.00180395 0.00825231,0.00486206 0.00825231,0.00666911 0.0081828,0.0070861 0.00729882,0.00726861 0.00396268,0.00732072 0.00252055,0.00725122 0.00212091,0.00707748 "/>
 </g>
</svg>
